<svg xmlns="http://www.w3.org/2000/svg" width="24" height="24" viewBox="0 0 24 24" fill="none">
  <path d="M10.0697 5.35872C10.4027 4.51457 11.5973 4.51457 11.9303 5.35872L13.6691 9.76755C13.7707 10.0253 13.9747 10.2293 14.2325 10.3309L18.6413 12.0697C19.4854 12.4027 19.4854 13.5973 18.6413 13.9303L14.2325 15.6691C13.9747 15.7707 13.7707 15.9747 13.6691 16.2325L11.9303 20.6413C11.5973 21.4854 10.4027 21.4854 10.0697 20.6413L8.33092 16.2325C8.22927 15.9747 8.02527 15.7707 7.76755 15.6691L3.35872 13.9303C2.51457 13.5973 2.51457 12.4027 3.35872 12.0697L7.76755 10.3309C8.02527 10.2293 8.22927 10.0253 8.33092 9.76755L10.0697 5.35872Z" stroke="#FEFEFE" stroke-width="1.5"/>
  <path d="M19.2295 3.99219C19.3546 4.35812 19.6419 4.64541 20.0078 4.77051L20.6797 5L20.0078 5.22949C19.6874 5.33903 19.427 5.57279 19.2832 5.875L19.2295 6.00781L19 6.67969L18.7705 6.00781C18.6454 5.64188 18.3581 5.35459 17.9922 5.22949L17.3193 5L17.9922 4.77051C18.3581 4.64541 18.6454 4.35812 18.7705 3.99219L19 3.31934L19.2295 3.99219Z" stroke="#FEFEFE" stroke-width="1.5"/>
</svg>