<svg width="24" height="24" viewBox="0 0 24 24" fill="none" xmlns="http://www.w3.org/2000/svg">
<g clip-path="url(#clip0_1405_74797)">
<path d="M6.3766 0.883591C7.37232 0.512324 8.45309 0.817574 9.11936 1.56676C9.38193 1.27062 9.71898 1.03254 10.1156 0.884543C11.4098 0.402011 12.851 1.0594 13.3339 2.35343L14.0281 4.2145C14.2684 3.98185 14.5595 3.79328 14.8929 3.66887C16.1869 3.18651 17.6283 3.84381 18.1111 5.13776L20.6165 11.8547C20.626 11.88 20.6334 11.9057 20.6399 11.9314C21.2157 13.5256 20.8468 15.2339 19.8975 16.6808C18.9389 18.1419 17.3645 19.387 15.419 20.1127C13.4735 20.8383 11.4681 20.9283 9.78691 20.452C8.11825 19.9791 6.71802 18.9259 6.1114 17.3381C6.10224 17.3188 6.09283 17.2994 6.08521 17.279L2.91974 8.79257C2.43716 7.49842 3.09491 6.05807 4.38896 5.57525C4.7224 5.45099 5.06584 5.40275 5.39986 5.42123L4.90737 4.10091C4.42483 2.80684 5.0827 1.3665 6.3766 0.883591ZM6.90082 2.28901C6.38312 2.4824 6.11976 3.05881 6.31279 3.57669L7.5998 7.02709C7.602 7.03286 7.60504 7.03834 7.6072 7.04413L8.72595 10.0434C8.72812 10.0493 8.7295 10.0553 8.73152 10.0612L8.82367 10.3082C8.96821 10.6962 8.77089 11.1282 8.38307 11.273C7.99512 11.4176 7.56308 11.2203 7.41825 10.8324L6.19472 7.55223C5.99553 7.0454 5.42551 6.79001 4.91319 6.98066C4.39532 7.17397 4.13209 7.75039 4.32515 8.26834L7.49062 16.7548C7.49382 16.7634 7.4964 16.7722 7.49927 16.7808L7.50201 16.7798C7.89451 17.832 8.85206 18.6273 10.1958 19.0081C11.5391 19.3888 13.2169 19.3331 14.8948 18.7073C16.5726 18.0814 17.877 17.0248 18.6429 15.8573C19.409 14.6895 19.6118 13.4615 19.2193 12.4092L19.2239 12.4075C19.2198 12.3979 19.2148 12.3887 19.2111 12.3789L16.7057 5.66198C16.5124 5.14422 15.935 4.88144 15.4171 5.07429C14.8992 5.2676 14.636 5.84401 14.8291 6.36197L16.2666 10.2159C16.347 10.4317 16.318 10.6596 16.2128 10.8457C16.1845 10.8957 16.1507 10.942 16.1114 10.9846C16.0343 11.0681 15.9396 11.1382 15.826 11.1807L15.8247 11.1801L15.8251 11.181C15.1486 11.4334 14.4718 11.7356 14.0662 12.2498C13.7187 12.6908 13.4643 13.433 13.9926 14.8497C14.1372 15.2376 13.9399 15.6696 13.552 15.8145C13.1641 15.9589 12.732 15.7617 12.5872 15.3739C11.9255 13.5998 12.138 12.2744 12.8892 11.3214C13.3712 10.7103 14.029 10.3227 14.6072 10.0594L11.9285 2.87765C11.7352 2.35981 11.1578 2.09695 10.6399 2.28996C10.122 2.48326 9.85877 3.05968 10.0518 3.57764L12.2173 9.38321C12.3619 9.77117 12.1646 10.2032 11.7767 10.348C11.3887 10.4928 10.9567 10.2954 10.8119 9.90743L8.18942 2.8767C7.99612 2.35886 7.41876 2.09599 6.90082 2.28901Z" fill="#FEFEFE"/>
<path d="M16.4158 1.4729C18.2546 1.70606 19.0932 2.33572 19.8715 3.80481" stroke="#FEFEFE" stroke-width="1.5" stroke-linecap="round"/>
<path d="M8.46899 22.0265C6.63018 21.7933 5.79155 21.1636 5.01328 19.6945" stroke="#FEFEFE" stroke-width="1.5" stroke-linecap="round"/>
</g>
<defs>
<clipPath id="clip0_1405_74797">
<rect width="24" height="24" fill="white"/>
</clipPath>
</defs>
</svg>
