<svg xmlns="http://www.w3.org/2000/svg" width="24" height="24" viewBox="0 0 24 24" fill="none">
  <path d="M8.90039 4.37793C10.4078 3.75353 12.0667 3.58992 13.667 3.9082C15.2673 4.22653 16.7378 5.01223 17.8916 6.16602C19.0454 7.3198 19.8311 8.79028 20.1494 10.3906C20.4677 11.9909 20.3041 13.6498 19.6797 15.1572C19.0553 16.6647 17.9973 17.9529 16.6406 18.8594C15.284 19.7658 13.6892 20.25 12.0576 20.25C10.6934 20.25 9.40732 19.9191 8.27539 19.334C8.16098 19.2748 8.03358 19.2459 7.90625 19.25L7.78027 19.2656L4.01953 20.0371L4.79199 16.2773C4.82639 16.1093 4.80244 15.9345 4.72363 15.7822C4.13763 14.6495 3.80762 13.3655 3.80762 12C3.80762 10.3684 4.2918 8.77366 5.19824 7.41699C6.10475 6.0603 7.39292 5.00236 8.90039 4.37793Z" stroke="#FEFEFE" stroke-width="1.5" stroke-linecap="round" stroke-linejoin="round"/>
</svg>