<svg xmlns="http://www.w3.org/2000/svg" width="24" height="24" viewBox="0 0 24 24" fill="none">
  <path d="M6.16587 12.0004V8.97592C6.17726 8.38142 6.33732 7.79453 6.63688 7.24889C6.93644 6.70324 7.36962 6.20956 7.91158 5.79614C8.45355 5.38272 9.09365 5.05767 9.79522 4.83964C10.4968 4.6216 11.246 4.51485 12 4.52551C12.754 4.51485 13.5032 4.6216 14.2048 4.83964C14.9064 5.05767 15.5465 5.38272 16.0884 5.79614C16.6304 6.20956 17.0636 6.70324 17.3631 7.24889C17.6627 7.79453 17.8227 8.38142 17.8341 8.97592V12.0004M13.8042 19.8492C15.3538 19.8492 16.0884 19.5909 16.7277 18.7021C17.3671 17.8132 17.8341 16.3478 17.8341 15.7378V13.1503M3.97806 10.2754H5.4366C5.63001 10.2754 5.8155 10.336 5.95227 10.4438C6.08903 10.5516 6.16587 10.6979 6.16587 10.8504V14.3003C6.16587 14.4528 6.08903 14.5991 5.95227 14.7069C5.8155 14.8147 5.63001 14.8753 5.4366 14.8753H3.97806C3.59124 14.8753 3.22025 14.7541 2.94673 14.5385C2.6732 14.3228 2.51953 14.0303 2.51953 13.7253V11.4254C2.51953 11.1204 2.6732 10.8279 2.94673 10.6122C3.22025 10.3966 3.59124 10.2754 3.97806 10.2754ZM20.0219 14.8753H18.5634C18.37 14.8753 18.1845 14.8147 18.0477 14.7069C17.911 14.5991 17.8341 14.4528 17.8341 14.3003V10.8504C17.8341 10.6979 17.911 10.5516 18.0477 10.4438C18.1845 10.336 18.37 10.2754 18.5634 10.2754H20.0219C20.4088 10.2754 20.7797 10.3966 21.0533 10.6122C21.3268 10.8279 21.4805 11.1204 21.4805 11.4254V13.7253C21.4805 14.0303 21.3268 14.3228 21.0533 14.5385C20.7797 14.7541 20.4088 14.8753 20.0219 14.8753Z" stroke="#FEFEFE" stroke-width="1.5" stroke-linecap="round" stroke-linejoin="round"/>
</svg>