<svg xmlns="http://www.w3.org/2000/svg" width="24" height="24" viewBox="0 0 24 24" fill="none">
  <path d="M21.6724 12.7061C22.2246 12.7061 22.6724 12.2583 22.6724 11.7061C22.6724 11.1538 22.2246 10.7061 21.6724 10.7061C21.1201 10.7061 20.6724 11.1538 20.6724 11.7061C20.6724 12.2583 21.1201 12.7061 21.6724 12.7061Z" stroke="#FEFEFE" stroke-width="2" stroke-linecap="round" stroke-linejoin="round"/>
  <path d="M21.6724 5C22.2246 5 22.6724 4.55228 22.6724 4C22.6724 3.44772 22.2246 3 21.6724 3C21.1201 3 20.6724 3.44772 20.6724 4C20.6724 4.55228 21.1201 5 21.6724 5Z" stroke="#FEFEFE" stroke-width="2" stroke-linecap="round" stroke-linejoin="round"/>
  <path d="M21.6724 21C22.2246 21 22.6724 20.5523 22.6724 20C22.6724 19.4477 22.2246 19 21.6724 19C21.1201 19 20.6724 19.4477 20.6724 20C20.6724 20.5523 21.1201 21 21.6724 21Z" stroke="#FEFEFE" stroke-width="2" stroke-linecap="round" stroke-linejoin="round"/>
</svg>