<svg xmlns="http://www.w3.org/2000/svg" width="24" height="24" viewBox="0 0 24 24" fill="none">
  <path d="M10.2061 4H3.70605V20H19.7061V13.5" stroke="#FEFEFE" stroke-width="1.5" stroke-linecap="round" stroke-linejoin="round"/>
  <path fill-rule="evenodd" clip-rule="evenodd" d="M17.4561 4C17.4561 3.58579 17.1203 3.25 16.7061 3.25C16.2918 3.25 15.9561 3.58579 15.9561 4V6.25H13.7061C13.2918 6.25 12.9561 6.58579 12.9561 7C12.9561 7.41421 13.2918 7.75 13.7061 7.75H15.9561V10C15.9561 10.4142 16.2918 10.75 16.7061 10.75C17.1203 10.75 17.4561 10.4142 17.4561 10V7.75H19.7061C20.1203 7.75 20.4561 7.41421 20.4561 7C20.4561 6.58579 20.1203 6.25 19.7061 6.25H17.4561V4Z" fill="#FEFEFE"/>
</svg>