<svg xmlns="http://www.w3.org/2000/svg" width="24" height="24" viewBox="0 0 24 24" fill="none">
  <path d="M11.6617 10.3234C13.684 10.3234 15.3234 8.68397 15.3234 6.66168C15.3234 4.63939 13.684 3 11.6617 3C9.63939 3 8 4.63939 8 6.66168C8 8.68397 9.63939 10.3234 11.6617 10.3234Z" stroke="#FEFEFE" stroke-width="1.5" stroke-linecap="round" stroke-linejoin="round"/>
  <path d="M19.2083 18.3512L21.5929 20.7358" stroke="#FEFEFE" stroke-width="1.5" stroke-linecap="round" stroke-linejoin="round"/>
  <path d="M20.0636 15.7839C20.0636 13.8934 18.531 12.3608 16.6404 12.3608C14.7499 12.3608 13.2173 13.8934 13.2173 15.7839C13.2173 17.6745 14.7499 19.2071 16.6404 19.2071C18.531 19.2071 20.0636 17.6745 20.0636 15.7839Z" stroke="#FEFEFE" stroke-width="1.5" stroke-linecap="round" stroke-linejoin="round"/>
  <path d="M10.6516 13.2163C11.0755 13.2167 11.4191 13.5609 11.4192 13.9849C11.4192 14.4089 11.0755 14.7531 10.6516 14.7534H8.02368C7.25641 14.7534 6.51942 15.0577 5.97681 15.6001C5.4342 16.1427 5.13016 16.8796 5.13013 17.647V19.4771C5.13013 19.9012 4.78561 20.2454 4.36157 20.2456C3.93733 20.2456 3.59302 19.9013 3.59302 19.4771V17.647C3.59305 16.4722 4.06015 15.3449 4.89087 14.5142C5.7216 13.6836 6.84895 13.2163 8.02368 13.2163H10.6516Z" fill="#FEFEFE"/>
</svg>