<svg xmlns="http://www.w3.org/2000/svg" width="25" height="24" viewBox="0 0 25 24" fill="none">
  <path d="M13.4383 19.4952C13.0241 19.4952 12.6883 19.831 12.6883 20.2452C12.6883 20.6594 13.0241 20.9952 13.4383 20.9952V19.4952ZM4.99257 19.4563C5.28546 19.7492 5.76033 19.7492 6.05323 19.4563L10.8262 14.6833C11.1191 14.3904 11.1191 13.9155 10.8262 13.6226C10.5333 13.3298 10.0584 13.3298 9.76554 13.6226L5.5229 17.8653L1.28025 13.6226C0.987362 13.3298 0.512488 13.3298 0.219594 13.6226C-0.0732985 13.9155 -0.0732985 14.3904 0.219594 14.6833L4.99257 19.4563ZM13.4383 20.9952C18.5096 20.9952 22.1036 16.6607 22.1036 12.3298H20.6036C20.6036 15.9142 17.6015 19.4952 13.4383 19.4952V20.9952ZM22.1036 12.3298C22.1036 10.2424 21.5842 7.92429 20.2222 6.10818C18.8357 4.25952 16.6288 3.00482 13.4383 3.00482V4.50482C16.1843 4.50482 17.9351 5.55877 19.0222 7.00818C20.1336 8.49015 20.6036 10.4595 20.6036 12.3298H22.1036ZM13.4383 3.00482C10.2548 3.00482 7.90041 4.25211 6.35312 6.07245C4.82201 7.87376 4.11328 10.1962 4.11328 12.3298H5.61328C5.61328 10.5058 6.22378 8.54068 7.49603 7.04392C8.75211 5.56618 10.6852 4.50482 13.4383 4.50482V3.00482ZM4.11328 12.3298C4.11328 14.3552 4.28252 15.716 4.45329 16.7406C4.6318 17.8117 4.7729 18.3491 4.7729 18.926H6.2729C6.2729 18.1836 6.08418 17.4018 5.93288 16.494C5.77385 15.5398 5.61328 14.2621 5.61328 12.3298H4.11328Z" fill="#FEFEFE"/>
</svg>