<svg xmlns="http://www.w3.org/2000/svg" width="24" height="24" viewBox="0 0 24 24" fill="none">
  <path d="M10.9444 14.262C10.7799 14.1192 10.588 14.0111 10.3806 13.9444L3.81737 11.8296C3.73901 11.8044 3.67025 11.7557 3.62032 11.6902C3.57039 11.6248 3.54169 11.5456 3.53807 11.4633C3.53444 11.3811 3.55606 11.2997 3.60003 11.2301C3.644 11.1605 3.70822 11.106 3.78405 11.0739L18.7161 4.77325C18.7856 4.74251 18.8625 4.7322 18.9376 4.74355C19.0128 4.75489 19.0832 4.78741 19.1406 4.8373C19.198 4.88719 19.24 4.95239 19.2616 5.02527C19.2833 5.09815 19.2838 5.17569 19.263 5.24883L15.0971 20.9112C15.0759 20.9907 15.0309 21.0619 14.968 21.1151C14.9052 21.1683 14.8276 21.201 14.7456 21.2088C14.6637 21.2167 14.5813 21.1992 14.5095 21.1589C14.4377 21.1185 14.38 21.0572 14.3441 20.9831L11.3382 14.7756C11.243 14.5796 11.109 14.4049 10.9444 14.262ZM10.9444 14.262L19.1382 4.84088" stroke="#FEFEFE" stroke-width="1.5" stroke-linecap="round" stroke-linejoin="round"/>
</svg>