<svg xmlns="http://www.w3.org/2000/svg" width="20" height="20" viewBox="0 0 20 20" fill="none">
  <g clip-path="url(#clip0_718_18008)">
    <path d="M2.41589 11.8109C2.34239 11.859 2.28388 11.9268 2.24701 12.0066C2.21014 12.0863 2.19639 12.1748 2.20732 12.262C2.21825 12.3491 2.25343 12.4315 2.30885 12.4997C2.36427 12.5678 2.43771 12.6191 2.52082 12.6476L7.11825 13.8C7.20394 13.8215 7.29394 13.8183 7.37791 13.7909C7.46189 13.7635 7.53642 13.713 7.59296 13.6451L11.0535 9.47894C11.2231 9.28654 11.5347 9.46791 11.4511 9.71037L9.53683 14.7768C9.50572 14.8594 9.49858 14.9492 9.51621 15.0358C9.53385 15.1223 9.57555 15.2021 9.63652 15.266L12.9087 18.695C12.9745 18.7532 13.0553 18.7917 13.1419 18.8063C13.2286 18.8208 13.3176 18.8107 13.3988 18.7772C13.48 18.7437 13.5501 18.688 13.6013 18.6166C13.6524 18.5451 13.6825 18.4608 13.688 18.3731L14.5546 4.75626C14.56 4.66934 14.5412 4.58261 14.5002 4.50579C14.4592 4.42896 14.3976 4.36507 14.3223 4.32125C14.247 4.27743 14.161 4.25542 14.074 4.25767C13.9869 4.25993 13.9022 4.28636 13.8293 4.33402L2.41589 11.8109Z" fill="#FEFEFE"/>
  </g>
  <defs>
    <clipPath id="clip0_718_18008">
      <rect width="20" height="20" fill="white" transform="translate(8.74228e-07 20) rotate(-90)"/>
    </clipPath>
  </defs>
</svg>