<svg xmlns="http://www.w3.org/2000/svg" width="24" height="24" viewBox="0 0 24 24" fill="none">
  <path d="M16.6667 10.5388H7.33333C6.59695 10.5388 6 11.2714 6 12.1751V17.9024C6 18.8061 6.59695 19.5388 7.33333 19.5388H16.6667C17.403 19.5388 18 18.8061 18 17.9024V12.1751C18 11.2714 17.403 10.5388 16.6667 10.5388Z" stroke="#FEFEFE" stroke-width="1.5" stroke-linecap="round" stroke-linejoin="round"/>
  <path d="M20 10V7.77778C20 7.04107 19.6839 6.33453 19.1213 5.81359C18.5587 5.29266 17.7956 5 17 5C16.2044 5 15.4413 5.29266 14.8787 5.81359C14.3161 6.33453 14 7.04107 14 7.77778V10" stroke="#FEFEFE" stroke-width="1.5" stroke-linecap="round" stroke-linejoin="round"/>
</svg>