<svg xmlns="http://www.w3.org/2000/svg" width="24" height="24" viewBox="0 0 24 24" fill="none">
  <path d="M5.25 2.84863H14.7549C15.1478 2.84876 15.5179 3.03354 15.7539 3.34766L19.75 8.66895C19.9124 8.88538 20 9.1493 20 9.41992V19.9014C20 20.5917 19.4404 21.1514 18.75 21.1514H5.25C4.55964 21.1514 4 20.5917 4 19.9014V4.09863C4 3.40828 4.55964 2.84863 5.25 2.84863Z" stroke="#FEFEFE" stroke-width="1.5" stroke-linejoin="round"/>
  <path d="M14.0029 8.54493C13.0984 8.15039 12.088 8.06911 11.1318 8.31251C10.1753 8.55607 9.32635 9.11134 8.72062 9.89063C8.29076 10.4438 8.00143 11.0876 7.86906 11.7676L7.27726 10.9395C7.03671 10.6024 6.56849 10.5233 6.23137 10.7637C5.89427 11.0043 5.81508 11.4734 6.05558 11.8106L7.4882 13.8154L7.57414 13.917C7.79496 14.1326 8.13161 14.1935 8.41887 14.0576L10.6464 13.0039L10.7138 12.9678C11.0391 12.7713 11.1689 12.3559 11.0029 12.0049C10.8255 11.6309 10.3781 11.4714 10.0038 11.6484L9.36418 11.9512C9.4599 11.5388 9.64221 11.1489 9.90519 10.8106C10.3063 10.2945 10.8685 9.92692 11.5019 9.76563C12.1351 9.60451 12.8043 9.65863 13.4032 9.91993C14.0021 10.1813 14.4969 10.6352 14.8095 11.209C15.1219 11.7829 15.2352 12.445 15.1298 13.0899C15.0243 13.7348 14.7065 14.327 14.2275 14.7715C13.7484 15.2159 13.1343 15.4879 12.4833 15.5449C11.8324 15.6018 11.1807 15.4403 10.6318 15.0859L10.5654 15.0479C10.2268 14.8748 9.80539 14.9824 9.59465 15.3086C9.37001 15.6566 9.47035 16.121 9.81828 16.3457C10.6473 16.881 11.6311 17.1251 12.6142 17.0391C13.5973 16.953 14.5245 16.5424 15.248 15.8711C15.9714 15.1998 16.45 14.306 16.6093 13.332C16.7685 12.3581 16.5988 11.3579 16.1269 10.4912C15.6549 9.62472 14.9072 8.93958 14.0029 8.54493Z" fill="#FEFEFE"/>
</svg>