<svg width="24" height="24" viewBox="0 0 24 24" fill="none" xmlns="http://www.w3.org/2000/svg">
<path d="M12 3.55222V20.4478C8.7147 20.4478 6.27376 16.1488 6.27376 16.1488H3.55217C3.30322 16.1488 3.06448 16.0499 2.88845 15.8739C2.71242 15.6979 2.61353 15.4591 2.61353 15.2102V8.71944C2.61353 8.4705 2.71242 8.23175 2.88845 8.05572C3.06448 7.87969 3.30322 7.7808 3.55217 7.7808H6.27376C6.27376 7.7808 8.7147 3.55222 12 3.55222Z" stroke="#FEFEFE" stroke-width="1.5" stroke-linejoin="round"/>
<path d="M15.7546 7.77612C16.0478 8.03854 16.3127 8.33096 16.545 8.64859C17.2543 9.62179 17.6351 10.7957 17.6319 12C17.6319 13.2456 17.2349 14.3968 16.5628 15.3275C16.3263 15.6544 16.0554 15.9549 15.7546 16.2239" stroke="#FEFEFE" stroke-width="1.5" stroke-linecap="round" stroke-linejoin="round"/>
<path d="M16.804 20.0658C19.5485 18.4278 21.3864 15.4284 21.3864 12C21.3864 8.62464 19.6049 5.66603 16.9311 4.01215" stroke="#FEFEFE" stroke-width="1.5" stroke-linecap="round"/>
</svg>
