<svg xmlns="http://www.w3.org/2000/svg" width="24" height="24" viewBox="0 0 24 24" fill="none">
  <path d="M16.833 4.00565C18.4745 4.05971 20.0776 4.51224 21.5 5.32303C21.6346 5.39975 21.7494 5.50647 21.835 5.63455C21.9205 5.76264 21.9748 5.90899 21.9932 6.06131L22 6.1785V19.0135C21.9999 19.1866 21.9539 19.3567 21.8662 19.5066C21.7785 19.6567 21.652 19.7813 21.5 19.868C21.348 19.9546 21.1755 20.0008 21 20.0008C20.8245 20.0008 20.652 19.9546 20.5 19.868C19.2839 19.1747 17.9043 18.8103 16.5 18.8103C15.0957 18.8103 13.7161 19.1747 12.5 19.868C12.348 19.9546 12.1755 20.0008 12 20.0008C11.8245 20.0008 11.652 19.9546 11.5 19.868C10.3287 19.2002 9.00468 18.8369 7.65234 18.8113C6.30006 18.7858 4.9629 19.0994 3.7666 19.7224L3.44043 19.9002L3.33691 19.9431L3.28809 19.9588L3.17773 19.9842L3.11719 19.9949L3 20.0008H2.95801L2.84766 19.989L2.77148 19.9744L2.66309 19.9431L2.53711 19.8875L2.44238 19.8328L2.35254 19.7664L2.29297 19.7107L2.21973 19.6306L2.15625 19.5428L2.13379 19.5066L2.10156 19.4471L2.05762 19.3455L2.04199 19.2976L2.01562 19.1892L2.00586 19.1287L2.00195 19.0799L2 19.0135V6.1785C2 6.00519 2.04602 5.83444 2.13379 5.68436C2.22155 5.53432 2.34802 5.40966 2.5 5.32303C3.92237 4.51224 5.52548 4.05971 7.16699 4.00565C8.80844 3.95162 10.4382 4.29808 11.9121 5.01346L12 5.05643L12.0879 5.01346C13.5618 4.29808 15.1916 3.95162 16.833 4.00565ZM12 5.99979C11.5859 5.99979 11.2501 6.33568 11.25 6.74979V18.2498C11.25 18.664 11.5858 18.9998 12 18.9998C12.4142 18.9998 12.75 18.664 12.75 18.2498V6.74979C12.7499 6.33568 12.4141 5.99979 12 5.99979Z" fill="#6868FF"/>
</svg>