<svg width="24" height="24" viewBox="0 0 24 24" fill="none" xmlns="http://www.w3.org/2000/svg">
<path d="M10.7186 6.57092C7.38093 7.85507 6.75 9.63463 6.75 11.125C6.75 12.9434 7.76356 14.093 9.81501 14.2243C9.87494 14.2243 10.17 14.318 10.2576 14.3836C10.3774 14.4774 10.5111 14.6554 10.5895 14.8101C10.7739 15.1757 10.8476 15.6162 10.8476 16.3052C10.8476 17.744 9.68132 19 7.4593 19C4.92841 19 2.25 16.9941 2.25 13.0339C2.24539 8.45965 6.11318 5.79293 10.0686 5.029C10.5664 4.93058 11.0413 5.08055 11.198 5.51173C11.3547 5.9429 11.1565 6.4022 10.7232 6.57092H10.7186Z" stroke="#888888" stroke-width="1.5"/>
<path d="M21.2186 6.57092C17.8809 7.85507 17.25 9.63463 17.25 11.125C17.25 12.9434 18.2636 14.093 20.315 14.2243C20.3749 14.2243 20.67 14.318 20.7576 14.3836C20.8774 14.4774 21.0111 14.6554 21.0895 14.8101C21.2739 15.1757 21.3476 15.6162 21.3476 16.3052C21.3476 17.744 20.1813 19 17.9593 19C15.4284 19 12.75 16.9941 12.75 13.0339C12.7454 8.45965 16.6132 5.79293 20.5686 5.029C21.0664 4.93058 21.5413 5.08055 21.698 5.51173C21.8547 5.9429 21.6565 6.4022 21.2232 6.57092H21.2186Z" stroke="#888888" stroke-width="1.5"/>
</svg>
