<svg width="24" height="24" viewBox="0 0 24 24" fill="none" xmlns="http://www.w3.org/2000/svg">
<path d="M11.5272 5.79533C7.81871 7.26293 7.11768 9.29673 7.11768 11C7.11768 13.0782 8.24385 14.392 10.5232 14.542C10.5898 14.542 10.9176 14.6491 11.015 14.7241C11.1481 14.8313 11.2967 15.0348 11.3838 15.2115C11.5887 15.6293 11.6706 16.1328 11.6706 16.9202C11.6706 18.5645 10.3747 20 7.90579 20C5.09369 20 2.11768 17.7075 2.11768 13.1815C2.11256 7.95388 6.4101 4.9062 10.805 4.03314C11.3582 3.92066 11.8857 4.09206 12.0599 4.58483C12.2341 5.0776 12.0138 5.60251 11.5323 5.79533H11.5272Z" fill="#6868FF"/>
<path d="M21.5272 5.79533C17.8187 7.26293 17.1177 9.29673 17.1177 11C17.1177 13.0782 18.2439 14.392 20.5232 14.542C20.5898 14.542 20.9176 14.6491 21.015 14.7241C21.1481 14.8313 21.2967 15.0348 21.3838 15.2115C21.5887 15.6293 21.6706 16.1328 21.6706 16.9202C21.6706 18.5645 20.3747 20 17.9058 20C15.0937 20 12.1177 17.7075 12.1177 13.1815C12.1126 7.95388 16.4101 4.9062 20.805 4.03314C21.3582 3.92066 21.8857 4.09206 22.0599 4.58483C22.2341 5.0776 22.0138 5.60251 21.5323 5.79533H21.5272Z" fill="#6868FF"/>
</svg>
