<svg width="24" height="24" viewBox="0 0 24 24" fill="none" xmlns="http://www.w3.org/2000/svg">
<path fill-rule="evenodd" clip-rule="evenodd" d="M13.4446 9.85008C13.8425 9.13266 14.069 8.30707 14.069 7.42857C14.069 6.93748 13.9982 6.46291 13.8663 6.01454C14.4497 5.39006 15.2786 5 16.1982 5C17.9645 5 19.3964 6.43908 19.3964 8.21429C19.3964 9.98949 17.9645 11.4286 16.1982 11.4286C15.0262 11.4286 14.0015 10.795 13.4446 9.85008Z" fill="#6868FF"/>
<circle cx="9" cy="7.5" r="4" fill="#6868FF"/>
<path d="M15.8493 18.0074C16.0319 19.0968 15.1055 20 14.001 20C12.7304 20 10.9592 20 9 20C7.04081 20 5.26961 20 3.99902 20C2.89445 20 1.96815 19.0968 2.15074 18.0074C2.63605 15.1121 4.40276 13 9 13C13.5972 13 15.364 15.1121 15.8493 18.0074Z" fill="#6868FF"/>
<path fill-rule="evenodd" clip-rule="evenodd" d="M16.8971 19.5C17.0158 19.3169 17.0781 19.0959 17.0597 18.8582C16.8864 16.6154 16.1461 14.6996 14.3 13.5736C14.7402 13.5252 15.2151 13.5 15.7271 13.5C20.4746 13.5 22.0272 15.6628 22.296 18.5009C22.3481 19.0507 21.8942 19.5 21.3419 19.5H16.8971Z" fill="#6868FF"/>
</svg>
