<svg width="24" height="24" viewBox="0 0 24 24" fill="none" xmlns="http://www.w3.org/2000/svg">
<circle cx="9.03841" cy="7.30769" r="3.5" stroke="#888888" stroke-width="1.61538"/>
<path d="M9.11768 13.8076C11.4812 13.8076 12.9809 14.3923 13.9429 15.2598C14.9092 16.1312 15.4468 17.3905 15.6763 18.9678C15.7643 19.5728 15.2514 20.1924 14.4644 20.1924H3.771C2.98393 20.1924 2.47108 19.5728 2.55908 18.9678C2.78857 17.3905 3.32617 16.1312 4.29248 15.2598C5.25444 14.3923 6.75416 13.8076 9.11768 13.8076Z" stroke="#888888" stroke-width="1.61538"/>
<path d="M18.5569 20H18.9813C19.6231 20 20.6967 20 21.5411 20C22.1359 20 22.6275 19.5139 22.554 18.9237C21.9797 14.3094 17.6874 14.3094 16.5571 14.3094M14.6177 5.06262C14.8143 5.02162 15.0185 5.00001 15.2279 5.00001C16.8036 5.00001 18.0809 6.22295 18.0809 7.73151C18.0809 9.24007 16.8036 10.463 15.2279 10.463C15.0185 10.463 14.8143 10.4414 14.6177 10.4004" stroke="#888888" stroke-width="1.61538" stroke-linecap="round"/>
</svg>
