<svg width="24" height="24" viewBox="0 0 24 24" fill="none" xmlns="http://www.w3.org/2000/svg">
<path d="M11.75 2.51953C13.8809 2.51953 15.6054 4.24264 15.6055 6.36523C15.6055 8.4879 13.881 10.2119 11.75 10.2119C9.61901 10.2119 7.89453 8.4879 7.89453 6.36523C7.89461 4.24264 9.61906 2.51953 11.75 2.51953Z" stroke="#888888" stroke-width="1.53846"/>
<path d="M11.75 13.2888C14.8214 13.2888 16.7702 14.027 18.0068 15.1403C19.2444 16.2545 19.8838 17.8475 20.1211 19.7956C20.1941 20.3957 19.6904 20.9811 18.9502 20.9811H4.5498C3.80959 20.9811 3.30594 20.3957 3.37891 19.7956C3.61623 17.8475 4.25563 16.2545 5.49316 15.1403C6.72984 14.027 8.67864 13.2888 11.75 13.2888Z" stroke="#888888" stroke-width="1.53846"/>
</svg>
