<svg width="24" height="24" viewBox="0 0 24 24" fill="none" xmlns="http://www.w3.org/2000/svg">
<path d="M18.7847 14.8457C18.4927 14.382 18.3377 13.8459 18.3374 13.2988V9.24756C18.3374 7.57627 17.6695 5.97343 16.4807 4.79165C15.2919 3.60987 13.6795 2.94595 11.9983 2.94595C10.3171 2.94595 8.70467 3.60987 7.51585 4.79165C6.32704 5.97343 5.65917 7.57627 5.65917 9.24756V13.2969C5.65924 13.8446 5.50425 14.3814 5.2119 14.8457L4.14706 16.5386C4.05446 16.6859 4.00321 16.8551 3.99863 17.0287C3.99404 17.2023 4.03629 17.374 4.12098 17.5259C4.20567 17.6778 4.32972 17.8044 4.48025 17.8926C4.63078 17.9807 4.8023 18.0272 4.97701 18.0272H19.0196C19.1943 18.0272 19.3658 17.9807 19.5163 17.8926C19.6669 17.8044 19.7909 17.6778 19.8756 17.5259C19.9603 17.374 20.0025 17.2023 19.998 17.0287C19.9934 16.8551 19.9421 16.6859 19.8495 16.5386L18.7847 14.8457Z" stroke="#FEFEFE" stroke-width="1.46807" stroke-linecap="round" stroke-linejoin="round"/>
<path d="M10.0425 20.9459H13.9573" stroke="#FEFEFE" stroke-width="1.46807" stroke-linecap="round"/>
<circle cx="20" cy="3" r="2" fill="#FF9496"/>
</svg>
