<svg xmlns="http://www.w3.org/2000/svg" width="24" height="24" viewBox="0 0 24 24" fill="none">
  <path d="M16.6963 3.75002C19.1894 3.75018 21.25 5.83985 21.25 8.48146C21.2499 11.2251 19.868 13.6154 17.3213 16.0078C16.1261 17.1311 14.6979 18.2202 13.5586 19.0342C12.9912 19.4396 12.4996 19.7735 12.1504 20.0059C12.0957 20.0422 12.0435 20.0752 11.9961 20.1065C11.9451 20.0733 11.8893 20.038 11.8301 19.999C11.4725 19.7641 10.9712 19.4267 10.3975 19.0195C9.24411 18.2011 7.82105 17.1149 6.6875 16.0156C4.39471 13.7922 2.75018 11.2038 2.75 8.48146C2.75 5.84804 4.8114 3.75018 7.30371 3.75002C9.04268 3.75002 10.5613 4.76754 11.3311 6.28224C11.4589 6.53397 11.7176 6.69337 12 6.69337C12.2824 6.69337 12.5411 6.53397 12.6689 6.28224C13.4387 4.76754 14.9573 3.75002 16.6963 3.75002Z" stroke="#FEFEFE" stroke-width="1.5" stroke-linecap="round" stroke-linejoin="round"/>
</svg>