<svg xmlns="http://www.w3.org/2000/svg" width="24" height="24" viewBox="0 0 24 24" fill="none">
  <g clip-path="url(#clip0_708_19742)">
    <path d="M14.6963 3.75C17.1894 3.75016 19.25 5.83984 19.25 8.48145C19.2499 11.225 17.868 13.6154 15.3213 16.0078C14.1261 17.1311 12.6979 18.2202 11.5586 19.0342C10.9912 19.4395 10.4996 19.7735 10.1504 20.0059C10.0957 20.0422 10.0435 20.0752 9.99609 20.1064C9.94514 20.0733 9.88932 20.0379 9.83008 19.999C9.47251 19.7641 8.97122 19.4267 8.39746 19.0195C7.24411 18.2011 5.82105 17.1149 4.6875 16.0156C2.39471 13.7922 0.750179 11.2038 0.75 8.48145C0.75 5.84802 2.8114 3.75016 5.30371 3.75C7.04268 3.75 8.56135 4.76753 9.33105 6.28223C9.45894 6.53396 9.71765 6.69336 10 6.69336C10.2824 6.69336 10.5411 6.53396 10.6689 6.28223C11.4387 4.76753 12.9573 3.75 14.6963 3.75Z" stroke="#FEFEFE" stroke-width="1.5" stroke-linecap="round" stroke-linejoin="round"/>
  </g>
  <defs>
    <clipPath id="clip0_708_19742">
      <rect width="24" height="24" fill="white"/>
    </clipPath>
  </defs>
</svg>