<svg xmlns="http://www.w3.org/2000/svg" width="24" height="24" viewBox="0 0 24 24" fill="none">
  <path d="M17.8818 20.772L20.4637 11.272C20.5042 11.1232 20.5109 10.9666 20.4833 10.8147C20.4558 10.6627 20.3947 10.5195 20.3049 10.3962C20.2151 10.2729 20.0991 10.173 19.9659 10.1042C19.8327 10.0355 19.6859 9.99981 19.5372 10H14.0176C13.9385 10 13.8604 9.98144 13.7891 9.94569C13.7178 9.90994 13.6552 9.85793 13.606 9.79354C13.5567 9.72914 13.522 9.65402 13.5046 9.57376C13.4871 9.4935 13.4873 9.41018 13.5051 9.33L13.7455 8.248C13.9657 7.2555 14.0364 6.233 13.9551 5.218L13.9109 4.6665C13.8635 4.07485 13.6159 3.51981 13.2123 3.1C12.8429 2.71609 12.3421 2.5003 11.8198 2.5H11.7044C11.3886 2.5 11.0977 2.678 10.9448 2.965L9.66632 5.3575C9.09323 6.43054 8.23887 7.31225 7.20268 7.9L4.001 9.715C3.84921 9.80114 3.72256 9.92824 3.63439 10.0829C3.54622 10.2376 3.4998 10.4142 3.5 10.594V20.5C3.5 20.7652 3.60131 21.0196 3.78165 21.2071C3.96199 21.3946 4.20658 21.5 4.46161 21.5H16.9563C17.1657 21.4999 17.3693 21.4288 17.5363 21.2974C17.7032 21.166 17.8249 20.9815 17.8818 20.772Z" stroke="#888888" stroke-width="1.5" stroke-linecap="round" stroke-linejoin="round"/>
</svg>