<svg xmlns="http://www.w3.org/2000/svg" width="24" height="24" viewBox="0 0 24 24" fill="none">
  <path d="M4 6.01762C4 4.81745 4 4.21737 4.29717 3.75873C4.55855 3.35548 4.97561 3.02764 5.48858 2.82217C6.07201 2.58856 6.83539 2.58856 8.36213 2.58856H15.9959C17.5226 2.58856 18.286 2.58856 18.8694 2.82217C19.3824 3.02764 19.7995 3.35548 20.0608 3.75873C20.358 4.21737 20.358 4.81745 20.358 6.01762V20.275C20.358 20.7958 20.358 21.0562 20.2203 21.1987C20.1608 21.2607 20.0849 21.3118 19.9978 21.3484C19.9107 21.385 19.8146 21.4064 19.7159 21.4109C19.4883 21.4216 19.2129 21.2769 18.6622 20.9887L12.179 17.5907L5.69578 20.9876C5.14506 21.2769 4.8697 21.4216 4.64069 21.4109C4.54232 21.4062 4.44641 21.3848 4.35957 21.3482C4.27273 21.3116 4.19702 21.2606 4.13768 21.1987C4 21.0562 4 20.7958 4 20.275V6.01762Z" fill="#6868FF"/>
</svg>