<svg xmlns="http://www.w3.org/2000/svg" width="24" height="24" viewBox="0 0 24 24" fill="none">
  <g clip-path="url(#clip0_731_18941)">
    <path d="M7.64209 6.01762C7.64209 4.81745 7.64209 4.21737 7.93926 3.75873C8.20064 3.35548 8.6177 3.02764 9.13067 2.82217C9.7141 2.58856 10.4775 2.58856 12.0042 2.58856H19.638C21.1647 2.58856 21.9281 2.58856 22.5115 2.82217C23.0245 3.02764 23.4415 3.35548 23.7029 3.75873C24.0001 4.21737 24.0001 4.81745 24.0001 6.01762V20.275C24.0001 20.7958 24.0001 21.0562 23.8624 21.1987C23.8029 21.2607 23.727 21.3118 23.6399 21.3484C23.5528 21.385 23.4566 21.4064 23.358 21.4109C23.1304 21.4216 22.855 21.2769 22.3043 20.9887L15.8211 17.5907L9.33787 20.9876C8.78715 21.2769 8.51179 21.4216 8.28278 21.4109C8.18441 21.4062 8.0885 21.3848 8.00166 21.3482C7.91482 21.3116 7.83911 21.2606 7.77977 21.1987C7.64209 21.0562 7.64209 20.7958 7.64209 20.275V6.01762Z" fill="#6868FF"/>
  </g>
  <defs>
    <clipPath id="clip0_731_18941">
      <rect width="24" height="24" fill="white"/>
    </clipPath>
  </defs>
</svg>