<svg xmlns="http://www.w3.org/2000/svg" width="24" height="24" viewBox="0 0 24 24" fill="none">
  <path d="M8.3623 3.33856H15.9961C16.7691 3.33856 17.3134 3.33861 17.7383 3.36591C18.1585 3.3929 18.4053 3.44395 18.5908 3.51825C18.9822 3.67506 19.2667 3.91227 19.4316 4.16669C19.4915 4.25919 19.5447 4.39383 19.5752 4.68719C19.6074 4.9968 19.6084 5.40169 19.6084 6.01727V20.2751C19.6084 20.4076 19.6084 20.5131 19.6064 20.6032C19.6063 20.6096 19.6046 20.6157 19.6045 20.6218L19.3652 20.5085C19.2691 20.4599 19.154 20.3989 19.0107 20.3239L12.5273 16.9265C12.3364 16.8264 12.113 16.8142 11.9141 16.8893L11.8311 16.9265L5.34766 20.3229L5.34668 20.3239C5.06024 20.4744 4.8839 20.5654 4.75195 20.6218C4.7518 20.6157 4.75209 20.6095 4.75195 20.6032C4.75001 20.5131 4.75 20.4076 4.75 20.2751V6.01727C4.75 5.40169 4.75102 4.9968 4.7832 4.68719C4.81375 4.39367 4.86682 4.25919 4.92676 4.16669C5.0917 3.91226 5.37615 3.67504 5.76758 3.51825C5.95311 3.44401 6.20008 3.39289 6.62012 3.36591C7.04503 3.33864 7.58946 3.33856 8.3623 3.33856Z" stroke="#FEFEFE" stroke-width="1.5" stroke-linecap="round" stroke-linejoin="round"/>
</svg>