<svg xmlns="http://www.w3.org/2000/svg" width="24" height="24" viewBox="0 0 24 24" fill="none">
  <g clip-path="url(#clip0_731_18939)">
    <path d="M12.0044 3.33856H19.6382C20.4112 3.33856 20.9554 3.33861 21.3804 3.36591C21.8006 3.3929 22.0474 3.44395 22.2329 3.51825C22.6243 3.67506 22.9088 3.91227 23.0737 4.16669C23.1336 4.25919 23.1868 4.39383 23.2173 4.68719C23.2495 4.9968 23.2505 5.40169 23.2505 6.01727V20.2751C23.2505 20.4076 23.2505 20.5131 23.2485 20.6032C23.2484 20.6096 23.2467 20.6157 23.2466 20.6218L23.0073 20.5085C22.9112 20.4599 22.7961 20.3989 22.6528 20.3239L16.1694 16.9265C15.9785 16.8264 15.7551 16.8142 15.5562 16.8893L15.4731 16.9265L8.98975 20.3229L8.98877 20.3239C8.70233 20.4744 8.52599 20.5654 8.39404 20.6218C8.39389 20.6157 8.39418 20.6095 8.39404 20.6032C8.3921 20.5131 8.39209 20.4076 8.39209 20.2751V6.01727C8.39209 5.40169 8.39311 4.9968 8.42529 4.68719C8.45584 4.39367 8.50891 4.25919 8.56885 4.16669C8.73379 3.91226 9.01824 3.67504 9.40967 3.51825C9.5952 3.44401 9.84217 3.39289 10.2622 3.36591C10.6871 3.33864 11.2315 3.33856 12.0044 3.33856Z" stroke="#FEFEFE" stroke-width="1.5" stroke-linecap="round" stroke-linejoin="round"/>
  </g>
  <defs>
    <clipPath id="clip0_731_18939">
      <rect width="24" height="24" fill="white"/>
    </clipPath>
  </defs>
</svg>